<svg xmlns="http://www.w3.org/2000/svg" width="20" height="14" viewBox="0 0 20 14">
  <path fill="#FFF" fill-opacity=".3" fill-rule="evenodd" d="M294,210 C285.7,210 284,217 284,217 L284,217 C284,217 286,224 294,224 C302,224 304,217 304,217 L304,217 C304,217 302,210 294,210 L294,210 Z M294,222 C291.2,222 289,219.8 289,217 C289,214.2 291.2,212 294,212 C296.8,212 299,214.2 299,217 C299,219.8 296.8,222 294,222 Z M297,217 C297,215.343 295.657,214 294,214 C292.343,214 291,215.343 291,217 C291,218.657 292.343,220 294,220 C295.657,220 297,218.657 297,217 Z" transform="translate(-284 -210)"/>
</svg>
