<svg xmlns="http://www.w3.org/2000/svg" viewBox="0 0 98 28">
  <g fill="none" fill-rule="evenodd" transform="translate(1)">
    <path fill="#44D62C" d="M16.2993162,13.5588923 C15.867591,13.5588923 15.5178506,13.9096615 15.5178506,14.3419692 C15.5178506,14.7745846 15.867591,15.1253538 16.2993162,15.1253538 C16.7310415,15.1253538 17.0807819,14.7745846 17.0807819,14.3419692 C17.0807819,13.9096615 16.7310415,13.5588923 16.2993162,13.5588923"/>
    <path fill="#44D62C" d="M21.6901089,22.0398154 L6.21831719,22.0398154 C5.74206838,22.0398154 5.35578791,21.6530462 5.35578791,21.1755077 L6.70347072,7.99489231 C6.70347072,7.51735385 7.08975119,7.13027692 7.566,7.13027692 L10.4772282,7.13027692 L10.6046578,7.13027692 L10.92185,7.13027692 L10.92185,6.36073846 C10.9292194,4.68873846 12.270761,3.33550769 13.940856,3.33550769 C15.6109509,3.33550769 16.9795138,4.68873846 16.9865761,6.36073846 L16.9865761,7.13027692 L17.3504413,7.13027692 L17.3774625,7.13027692 L20.3424261,7.13027692 C20.818982,7.13027692 21.2049554,7.51735385 21.2049554,7.99489231 L22.5526382,21.1755077 C22.5526382,21.6530462 22.1666648,22.0398154 21.6901089,22.0398154 M14.0025749,0.0404307692 C6.38044444,0.0139692308 0.180612219,6.11150769 0.153898069,13.8210462 C0.127183919,21.4585846 6.28433492,27.6715077 13.9061583,27.6982769 C21.5279816,27.7250462 27.7281209,21.5552 27.7548351,13.9176615 C27.7815492,6.20812308 21.6240912,0.0672 14.0025749,0.0404307692"/>
    <path fill="#44D62C" d="M13.9407638 3.95673846C12.6130399 3.95673846 11.5490798 5.03181538 11.5420174 6.36073846L11.5420174 7.13027692 11.8985131 7.13027692 16.0567088 7.13027692 16.3665315 7.13027692 16.3665315 6.36073846C16.3594691 5.03181538 15.2687949 3.95673846 13.9407638 3.95673846M16.2993162 15.4460615C15.691032 15.4460615 15.1975878 14.9519077 15.1975878 14.3420615 15.1975878 13.7325231 15.691032 13.2380615 16.2993162 13.2380615 16.9076005 13.2380615 17.4010446 13.7325231 17.4010446 14.3420615 17.4010446 14.9519077 16.9076005 15.4460615 16.2993162 15.4460615zM12.6112282 14.6666769L12.0585217 14.6666769 11.868145 14.4756 11.868145 14.3420615 11.868145 14.2085231 12.0585217 14.0174462 12.6112282 14.0174462C12.6112282 14.0174462 12.6873789 14.0971385 12.6873789 14.3420615 12.6873789 14.5869846 12.6112282 14.6666769 12.6112282 14.6666769zM11.9062203 15.3731385C11.9062203 15.3731385 11.8269991 15.4494462 11.5822729 15.4494462 11.3378538 15.4494462 11.2583254 15.3731385 11.2583254 15.3731385L11.2583254 14.8192923 11.4490092 14.6285231 11.5822729 14.6285231 11.7158436 14.6285231 11.9062203 14.8192923 11.9062203 15.3731385zM10.5533175 14.6666769C10.5533175 14.6666769 10.4771668 14.5869846 10.4771668 14.3420615 10.4771668 14.0971385 10.5533175 14.0174462 10.5533175 14.0174462L11.1060241 14.0174462 11.2967078 14.2085231 11.2967078 14.3420615 11.2967078 14.4756 11.1060241 14.6666769 10.5533175 14.6666769zM11.2583254 13.3109846C11.2583254 13.3109846 11.3378538 13.2346769 11.5822729 13.2346769 11.8269991 13.2346769 11.9062203 13.3109846 11.9062203 13.3109846L11.9062203 13.8648308 11.7158436 14.0556 11.5822729 14.0556 11.4490092 14.0556 11.2583254 13.8648308 11.2583254 13.3109846zM17.817724 12.2125231C17.8060557 12.0165231 17.7624533 11.9556 17.6436214 11.9008308 17.5250965 11.8460615 16.6730073 11.5054462 16.2529503 11.4159077 15.8328933 11.3263692 15.5691295 11.5946769 15.5055682 11.6583692 15.4972776 11.6666769 15.4800823 11.6891385 15.4570529 11.7220615L12.4245362 11.7220615C12.4015068 11.6891385 12.3843115 11.6666769 12.376328 11.6583692 12.3124596 11.5946769 12.0486958 11.3263692 11.6286388 11.4159077 11.2085818 11.5054462 10.3564926 11.8460615 10.2379677 11.9008308 10.1191358 11.9556 10.0755334 12.0165231 10.0638651 12.2125231 10.0638651 12.2125231 9.23941121 12.9931385 8.70789174 15.3823692 8.17667933 17.7716 8.62682811 18.4340615 9.61218107 18.6906769 9.61218107 18.6906769 10.6666223 17.6226769 10.898452 17.3223692 11.2340677 16.8876 12.0327287 16.4042154 12.4457233 16.4042154L15.4358658 16.4042154C15.8488604 16.4042154 16.6475214 16.8876 16.9831371 17.3223692 17.2149668 17.6226769 18.2697151 18.6906769 18.2697151 18.6906769 19.254761 18.4340615 19.7049098 17.7716 19.1736974 15.3823692 18.6421779 12.9931385 17.817724 12.2125231 17.817724 12.2125231z"/>
    <path fill="#222" d="M11.5418639 6.36073846C11.5492333 5.03181538 12.6128864 3.95673846 13.9406103 3.95673846 15.2686413 3.95673846 16.3593156 5.03181538 16.366685 6.36073846L16.366685 7.13027692 16.9866375 7.13027692 16.9866375 6.36073846C16.9792681 4.68873846 15.6110123 3.33550769 13.9406103 3.33550769 12.2708224 3.33550769 10.9292808 4.68873846 10.9219114 6.36073846L10.9219114 7.13027692 11.5418639 7.13027692 11.5418639 6.36073846zM11.5823343 14.6284615L11.4487635 14.6284615 11.2583868 14.8195385 11.2583868 15.3730769C11.2583868 15.3730769 11.3379152 15.4493846 11.5823343 15.4493846 11.8267534 15.4493846 11.9062817 15.3730769 11.9062817 15.3730769L11.9062817 14.8195385 11.715905 14.6284615 11.5823343 14.6284615zM11.296585 14.3420923L11.296585 14.2082462 11.1059012 14.0174769 10.5535017 14.0174769C10.5535017 14.0174769 10.4773511 14.0971692 10.4773511 14.3420923 10.4773511 14.5870154 10.5535017 14.6667077 10.5535017 14.6667077L11.1059012 14.6667077 11.296585 14.4756308 11.296585 14.3420923zM11.5823343 14.0557538L11.715905 14.0557538 11.9062817 13.8646769 11.9062817 13.3111385C11.9062817 13.3111385 11.8267534 13.2348308 11.5823343 13.2348308 11.3379152 13.2348308 11.2583868 13.3111385 11.2583868 13.3111385L11.2583868 13.8646769 11.4487635 14.0557538 11.5823343 14.0557538zM12.0586752 14.0174154L11.8679915 14.2084923 11.8679915 14.3420308 11.8679915 14.4755692 12.0586752 14.6666462 12.6110747 14.6666462C12.6110747 14.6666462 12.6875324 14.5872615 12.6875324 14.3420308 12.6875324 14.0971077 12.6110747 14.0174154 12.6110747 14.0174154L12.0586752 14.0174154zM16.2993162 15.1252923C15.867591 15.1252923 15.5178506 14.7745231 15.5178506 14.3422154 15.5178506 13.9096 15.867591 13.5588308 16.2993162 13.5588308 16.7310415 13.5588308 17.0807819 13.9096 17.0807819 14.3422154 17.0807819 14.7745231 16.7310415 15.1252923 16.2993162 15.1252923M16.2993162 13.2382154C15.691032 13.2382154 15.1975878 13.7323692 15.1975878 14.3422154 15.1975878 14.9517538 15.691032 15.4459077 16.2993162 15.4459077 16.9076005 15.4459077 17.4010446 14.9517538 17.4010446 14.3422154 17.4010446 13.7323692 16.9076005 13.2382154 16.2993162 13.2382154"/>
    <path fill="#222" d="M18.2695616,18.6906462 C18.2695616,18.6906462 17.2148132,17.6226462 16.9832906,17.3223385 C16.6473678,16.8875692 15.8487069,16.4041846 15.4357123,16.4041846 L12.4458769,16.4041846 C12.0328822,16.4041846 11.2342213,16.8875692 10.8986056,17.3223385 C10.6667759,17.6226462 9.61202754,18.6906462 9.61202754,18.6906462 C8.62667458,18.4340308 8.1765258,17.7715692 8.70804527,15.3823385 C9.23956474,12.9931077 10.0640187,12.2124923 10.0640187,12.2124923 C10.0756869,12.0164923 10.1192893,11.9555692 10.2378142,11.9008 C10.3566461,11.8460308 11.2084283,11.5054154 11.6287923,11.4158769 C12.0488493,11.3263385 12.3126132,11.5946462 12.3761744,11.6583385 C12.384465,11.6666462 12.4013533,11.6891077 12.4246898,11.7220308 L15.4568993,11.7220308 C15.4802358,11.6891077 15.4971241,11.6666462 15.5054147,11.6583385 C15.569283,11.5946462 15.8327398,11.3263385 16.2531038,11.4158769 C16.6731608,11.5054154 17.524943,11.8460308 17.6437749,11.9008 C17.7626068,11.9555692 17.8059022,12.0164923 17.8175704,12.2124923 C17.8175704,12.2124923 18.6420244,12.9931077 19.1735438,15.3823385 C19.7050633,17.7715692 19.2549145,18.4340308 18.2695616,18.6906462 M20.3425182,7.13033846 L17.3775546,7.13033846 L17.3505334,7.13033846 L16.9866682,7.13033846 L16.3667157,7.13033846 L16.0565859,7.13033846 L11.8983903,7.13033846 L11.5418946,7.13033846 L10.9219421,7.13033846 L10.6047499,7.13033846 L10.4773204,7.13033846 L7.56609212,7.13033846 C7.0898433,7.13033846 6.70356284,7.51741538 6.70356284,7.99464615 L5.35588003,21.1755692 C5.35588003,21.6528 5.74216049,22.0398769 6.21840931,22.0398769 L21.690201,22.0398769 C22.1664498,22.0398769 22.5527303,21.6528 22.5527303,21.1755692 L21.2050475,7.99464615 C21.2050475,7.51741538 20.818767,7.13033846 20.3425182,7.13033846"/>
    <g transform="translate(35.128 4)">
      <path fill="#FFF" d="M3.25540782 16.59688L5.09281934 16.59688 5.09281934 19.88288C5.05809095 19.88888 4.99781523 19.89928 4.911593 19.91328 4.82537078 19.92728 4.72238313 19.94328 4.60302922 19.96048 4.48407449 19.97768 4.35234609 19.99608 4.20784403 20.01488 4.06334198 20.03368 3.91684403 20.05048 3.76795103 20.06448 3.61865885 20.07888 3.47216091 20.09008 3.32765885 20.10008 3.18315679 20.10888 3.04983169 20.11408 2.92768354 20.11408 2.41593868 20.11408 1.99400864 20.03768 1.66149424 19.88528 1.32897984 19.73208 1.06472469 19.50928.868728807 19.21728.672333745 18.92408.535815226 18.56568.458774074 18.14048.382132099 17.71568.343811111 17.23248.343811111 16.69088.343811111 16.13448.382930453 15.64048.461169136 15.21088.539806996 14.78128.677523045 14.42048.87351893 14.12728 1.06991399 13.83528 1.3329716 13.61248 1.66269177 13.45928 1.99281111 13.30688 2.4087535 13.23048 2.91131728 13.23048 3.165593 13.23048 3.42266296 13.24408 3.68172881 13.27088 3.94079465 13.29768 4.1755107 13.32648 4.38627613 13.35808 4.6293749 13.39568 4.8648893 13.43848 5.09281934 13.48568L5.06447778 14.10408C4.83654774 14.06928 4.60263004 14.03648 4.36232551 14.00528 4.15515267 13.97968 3.93041605 13.95608 3.68851481 13.93448 3.44661358 13.91208 3.2158893 13.90128 2.9959428 13.90128 2.60993868 13.90128 2.29498807 13.95768 2.05149012 14.07128 1.80799218 14.18448 1.61638724 14.35568 1.47667531 14.58568 1.33696337 14.81528 1.24195926 15.10568 1.19166296 15.45648 1.14136667 15.80728 1.11621852 16.21928 1.11621852 16.69088 1.11621852 17.15688 1.14136667 17.56288 1.19166296 17.90888 1.24195926 18.25528 1.33536667 18.54368 1.47188519 18.77288 1.60880288 19.00328 1.79881111 19.17408 2.04190988 19.28808 2.28540782 19.40128 2.60035844 19.45728 2.98676173 19.45728 3.10571646 19.45728 3.23345309 19.45328 3.3683749 19.44328 3.50329671 19.43408 3.63462593 19.42208 3.76196337 19.40808 3.88890165 19.39368 4.00586049 19.38008 4.11283992 19.36568 4.21942016 19.35168 4.30404568 19.33848 4.36711564 19.32528L4.36711564 17.26208 3.25540782 17.26208 3.25540782 16.59688zM8.1310749 17.63084L10.6610584 17.63084 9.64794733 13.96724 9.14418601 13.96724 8.1310749 17.63084zM8.58334239 13.32964L10.2040008 13.32964 12.0370214 20.01964 11.3065276 20.01964 10.8211284 18.29644 7.96621481 18.29644 7.48560576 20.01964 6.75072099 20.01964 8.58334239 13.32964z"/>
      <path fill="#FFF" d="M13.812 13.33L15.155 13.33 17.044 18.986 18.938 13.33 20.276 13.33 20.276 20.02 19.536 20.02 19.536 14.123 19.4 14.123 17.459 19.779 16.63 19.779 14.688 14.123 14.557 14.123 14.557 20.02 13.812 20.02z"/>
      <path fill="#FFF" d="M22.532 13.33L26.594 13.33 26.594 13.986 23.277 13.986 23.277 16.3 26.014 16.3 26.014 16.946 23.277 16.946 23.277 19.363 26.594 19.363 26.594 20.02 22.532 20.02z"/>
      <path fill="#FFF" d="M35.186251,14.04256 L34.4421852,13.96736 C34.338,13.95776 34.2330165,13.94816 34.1264362,13.93856 C34.0194568,13.92936 33.9148724,13.91976 33.8130823,13.91056 C33.710893,13.90096 33.6142922,13.89376 33.5232798,13.88896 C33.4318683,13.88456 33.3520329,13.88216 33.2829753,13.88216 C32.799572,13.88216 32.4371193,13.96736 32.1968148,14.13696 C31.9569095,14.30696 31.836358,14.58536 31.836358,14.97256 C31.836358,15.18976 31.8662963,15.36616 31.9261728,15.50136 C31.9856502,15.63656 32.0814527,15.74976 32.2135802,15.83896 C32.3453086,15.92856 32.5141605,16.00256 32.7197366,16.06096 C32.9257119,16.11896 33.1743992,16.18136 33.4665967,16.24736 C33.8027037,16.32616 34.0917078,16.40856 34.3336091,16.49496 C34.5755103,16.58216 34.7746996,16.69096 34.9319753,16.82336 C35.0888519,16.95536 35.204214,17.11896 35.2780617,17.31456 C35.3519095,17.50976 35.3890329,17.75336 35.3890329,18.04616 C35.3890329,18.41456 35.339535,18.72896 35.2405391,18.99016 C35.1415432,19.25136 34.9994362,19.46496 34.8142181,19.63016 C34.629,19.79536 34.4050617,19.91576 34.1428025,19.99096 C33.8805432,20.06696 33.5843539,20.10416 33.2546337,20.10416 C33.1540412,20.10416 33.0474609,20.10216 32.9340947,20.09776 C32.8215267,20.09256 32.7057654,20.08536 32.5880082,20.07616 C32.470251,20.06696 32.3532922,20.05576 32.2371317,20.04296 C32.120572,20.03056 32.0092016,20.01656 31.9026214,20.00096 C31.7704938,19.98216 31.6439547,19.96536 31.5230041,19.95096 C31.4024527,19.93656 31.2759136,19.91736 31.1441852,19.89176 L31.2192305,19.27336 L31.9636955,19.36336 C32.0674815,19.37576 32.1748601,19.38656 32.2862305,19.39656 C32.398,19.40576 32.5081728,19.41456 32.6163498,19.42216 C32.7245267,19.43016 32.8299095,19.43616 32.9320988,19.44096 C33.0338889,19.44616 33.128893,19.44856 33.2167119,19.44856 C33.7005144,19.44856 34.0593745,19.34056 34.2936914,19.12456 C34.5276091,18.90936 34.6445679,18.56856 34.6445679,18.10256 C34.6445679,17.91696 34.6186214,17.76216 34.5667284,17.63776 C34.5148354,17.51336 34.4302099,17.40856 34.3124527,17.32376 C34.1946955,17.23856 34.0414115,17.16576 33.853,17.10416 C33.6645885,17.04256 33.433465,16.98416 33.160428,16.92696 C32.8147407,16.85496 32.5125638,16.77456 32.2534979,16.68616 C31.9944321,16.59856 31.777679,16.48496 31.6032387,16.34656 C31.4287984,16.20816 31.2986667,16.03296 31.2120453,15.82016 C31.125823,15.60776 31.0827119,15.34096 31.0827119,15.01976 C31.0827119,14.69576 31.1338066,14.42016 31.2359959,14.19376 C31.337786,13.96736 31.4830864,13.78136 31.6714979,13.63656 C31.8599095,13.49176 32.0862428,13.38616 32.3500988,13.32016 C32.6139547,13.25416 32.9089465,13.22096 33.2358724,13.22096 C33.433465,13.22096 33.647823,13.23136 33.8789465,13.25176 C34.11007,13.27216 34.3288189,13.29536 34.5363909,13.32016 C34.6589383,13.33576 34.7786914,13.35096 34.8964486,13.36496 C35.0142058,13.37936 35.1327613,13.39576 35.2525144,13.41456 L35.186251,14.04256 Z"/>
      <path fill="#FFF" d="M36.577 13.33L41.397 13.33 41.397 13.995 39.357 13.995 39.357 20.02 38.631 20.02 38.631 13.995 36.577 13.995z"/>
      <path fill="#FFF" d="M45.0820473 19.45744C45.471644 19.45744 45.7877922 19.40224 46.0312901 19.29224 46.2747881 19.18224 46.4647963 19.01384 46.6013148 18.78664 46.7378333 18.56024 46.8304424 18.27424 46.879142 17.92904 46.9282407 17.58384 46.9525905 17.17544 46.9525905 16.70304 46.9525905 16.24944 46.926644 15.84824 46.874751 15.49824 46.822858 15.14864 46.7270556 14.85464 46.5873436 14.61664 46.4476317 14.37904 46.2568251 14.19824 46.0149239 14.07344 45.7730226 13.94904 45.4620638 13.88664 45.0820473 13.88664 44.6988374 13.88664 44.3854835 13.94824 44.1423848 14.07104 43.8984877 14.19424 43.7076811 14.37424 43.5695658 14.61224 43.4314506 14.84984 43.3372449 15.14464 43.2869486 15.49584 43.2366523 15.84704 43.2115041 16.24944 43.2115041 16.70304 43.2115041 17.15984 43.2366523 17.56064 43.2869486 17.90544 43.3372449 18.25024 43.4306523 18.53784 43.5671708 18.76784 43.7040885 18.99784 43.8936975 19.17024 44.1371955 19.28504 44.3806934 19.39984 44.695644 19.45744 45.0820473 19.45744M45.0820473 20.11424C44.5635165 20.11424 44.1348004 20.04144 43.7958992 19.89704 43.4565988 19.75184 43.1871543 19.53664 42.987965 19.24984 42.7883765 18.96384 42.6486646 18.60784 42.56843 18.18304 42.4881955 17.75824 42.4482778 17.26584 42.4482778 16.70544 42.4482778 16.15424 42.4881955 15.66384 42.56843 15.23224 42.6486646 14.80104 42.7887757 14.43744 42.9899609 14.14184 43.1911461 13.84624 43.4613889 13.62024 43.8006893 13.46424 44.1395905 13.30864 44.5667099 13.23064 45.0820473 13.23064 45.5969856 13.23064 46.0249033 13.30704 46.3658004 13.45944 46.7066975 13.61264 46.9777387 13.83624 47.1785247 14.13224 47.3797099 14.42824 47.5210185 14.79184 47.6024506 15.22304 47.6842819 15.65384 47.7249979 16.14864 47.7249979 16.70544 47.7249979 17.28184 47.6842819 17.78264 47.6024506 18.20904 47.5210185 18.63544 47.3805082 18.98944 47.1809198 19.27104 46.9813313 19.55304 46.7114877 19.76424 46.3705905 19.90384 46.0296934 20.04384 45.600179 20.11424 45.0820473 20.11424M53.1148848 15.35976C53.1148848 14.89696 53.0043128 14.55256 52.7827695 14.32576 52.5612263 14.09936 52.2151399 13.98576 51.7437119 13.98576L50.0196667 13.98576 50.0196667 16.80016 51.7532922 16.80016C52.0047737 16.80016 52.2167366 16.76456 52.3895802 16.69336 52.5620247 16.62256 52.702535 16.52336 52.8111111 16.39616 52.9192881 16.26856 52.9971276 16.11696 53.0442305 15.94056 53.0913333 15.76416 53.1148848 15.57056 53.1148848 15.35976zM50.0196667 17.45576L50.0196667 20.01936 49.2752016 20.01936 49.2752016 13.32976 51.7437119 13.32976C52.4442675 13.32976 52.9751728 13.49176 53.336428 13.81616 53.697284 14.14016 53.8781111 14.65496 53.8781111 15.35976 53.8781111 15.85696 53.7795144 16.27096 53.5811235 16.60136 53.3835309 16.93216 53.0741687 17.16656 52.653037 17.30496L53.9347942 20.01936 53.1148848 20.01936 51.9089712 17.45576 50.0196667 17.45576z"/>
      <path fill="#FFF" d="M55.827 13.33L59.888 13.33 59.888 13.986 56.571 13.986 56.571 16.3 59.309 16.3 59.309 16.946 56.571 16.946 56.571 19.363 59.888 19.363 59.888 20.02 55.827 20.02z"/>
      <path fill="#44D62C" d="M33.445 8.536L28.622 8.536 32.851 1.196 33.447 0.162 32.255 0.162 26.833 0.162 26.833 1.196 31.658 1.196 27.429 8.536 26.833 9.572 28.026 9.572 32.848 9.572z"/>
      <path fill="#44D62C" d="M46.554 0.161L39.98 0.161 39.98 1.196 45.957 1.196z"/>
      <path fill="#44D62C" d="M46.554 4.349L39.98 4.349 39.98 5.384 45.957 5.384z"/>
      <path fill="#44D62C" d="M46.554 8.536L39.98 8.536 39.98 9.572 45.957 9.572z"/>
      <path fill="#44D62C" d="M54.1602095 1.19608L57.387156 1.19608C58.0936992 1.19608 58.668514 1.77208 58.668514 2.48008L58.668514 3.06488C58.668514 3.77248 58.0936992 4.34888 57.387156 4.34888L54.1602095 4.34888 54.1602095 1.19608zM59.701584 3.06488L59.701584 2.48008C59.701584 1.19928 58.6653206.16128 57.387156.16128L54.1602095.16128 53.1271395.16128 53.1271395 5.38408 53.1271395 9.57128 54.1602095 9.57128 54.1602095 5.38408 56.0958185 5.38408 58.5088432 9.57128 59.701584 9.57128 57.2885593 5.38408 57.387156 5.38408C58.6653206 5.38408 59.701584 4.34568 59.701584 3.06488zM1.57155967 1.19608L4.79850617 1.19608C5.50504938 1.19608 6.0798642 1.77208 6.0798642 2.48008L6.0798642 3.06488C6.0798642 3.77248 5.50504938 4.34888 4.79850617 4.34888L1.57155967 4.34888 1.57155967 1.19608zM7.11293416 3.06488L7.11293416 2.48008C7.11293416 1.19928 6.07667078.16128 4.79850617.16128L1.57155967.16128.538489712.16128.538489712 5.38408.538489712 9.57128 1.57155967 9.57128 1.57155967 5.38408 3.50716872 5.38408 5.92019342 9.57128 7.11293416 9.57128 4.69990947 5.38408 4.79850617 5.38408C6.07667078 5.38408 7.11293416 4.34568 7.11293416 3.06488z"/>
      <path fill="#44D62C" d="M14.277 9.571L16.957 2.924 19.638 9.571 20.752 9.571 17.515 1.543 16.957 0.161 16.401 1.543 13.163 9.571z"/>
      <path fill="#44D62C" d="M59.902 0.446L59.902 0.347 60.617 0.347 60.617 0.446 60.315 0.446 60.315 1.339 60.207 1.339 60.207 0.446z"/>
      <path fill="#44D62C" d="M60.894 1.339L60.894 0.347 61.093 0.347 61.373 1.185 61.654 0.347 61.853 0.347 61.853 1.339 61.742 1.339 61.742 0.465 61.722 0.465 61.435 1.303 61.312 1.303 61.024 0.465 61.004 0.465 61.004 1.339z"/>
    </g>
  </g>
</svg>
