<?xml version="1.0" encoding="UTF-8"?>
<svg width="112px" height="18px" viewBox="0 0 112 18" version="1.1" xmlns="http://www.w3.org/2000/svg" xmlns:xlink="http://www.w3.org/1999/xlink">
    <!-- Generator: Sketch 46.2 (44496) - http://www.bohemiancoding.com/sketch -->
    <title>Group 6</title>
    <desc>Created with Sketch.</desc>
    <defs></defs>
    <g id="Join" stroke="none" stroke-width="1" fill="none" fill-rule="evenodd">
        <g id="j-1-login" transform="translate(-30.000000, -16.000000)" fill="#44D62C">
            <g id="Group-6" transform="translate(30.000000, 16.000000)">
                <polygon id="Fill-74" points="86.7096774 0.000175609756 74.0645161 0.000175609756 74.0645161 1.80017561 85.5624422 1.80017561"></polygon>
                <polygon id="Fill-72" points="63.2204559 16.02 54.0009919 16.02 62.0856909 1.98045 63.2258065 0 60.9451294 0 50.5815369 0 50.5815369 1.98045 59.8054598 1.98045 51.7212066 16.02 50.5806452 18 52.8613222 18 62.0803403 18"></polygon>
                <polygon id="Fill-76" points="86.7096774 8.1 74.0645161 8.1 74.0645161 9.9 85.5624422 9.9"></polygon>
                <polygon id="Fill-78" points="86.7096774 16.2 74.0645161 16.2 74.0645161 18 85.5624422 18"></polygon>
                <path d="M101.341762,1.98035122 L107.549273,1.98035122 C108.907685,1.98035122 110.013076,3.08150122 110.013076,4.43555122 L110.013076,5.55470122 C110.013076,6.90875122 108.907685,8.00990122 107.549273,8.00990122 L101.341762,8.00990122 L101.341762,1.98035122 Z M112,5.55470122 L112,4.43555122 C112,1.98620122 110.006796,0.000351219512 107.549273,0.000351219512 L101.341762,0.000351219512 L99.3548387,0.000351219512 L99.3548387,9.99035122 L99.3548387,18.0003512 L101.341762,18.0003512 L101.341762,9.99035122 L105.065282,9.99035122 L109.705774,18.0003512 L112,18.0003512 L107.359508,9.99035122 L107.549273,9.99035122 C110.006796,9.99035122 112,8.00450122 112,5.55470122 L112,5.55470122 Z" id="Fill-80"></path>
                <path d="M1.98692374,1.98035122 L8.19443418,1.98035122 C9.5528458,1.98035122 10.6582376,3.08150122 10.6582376,4.43555122 L10.6582376,5.55470122 C10.6582376,6.90875122 9.5528458,8.00990122 8.19443418,8.00990122 L1.98692374,8.00990122 L1.98692374,1.98035122 Z M12.6451613,5.55470122 L12.6451613,4.43555122 C12.6451613,1.98620122 10.6519569,0.000351219512 8.19443418,0.000351219512 L1.98692374,0.000351219512 L0,0.000351219512 L0,9.99035122 L0,18.0003512 L1.98692374,18.0003512 L1.98692374,9.99035122 L5.71044304,9.99035122 L10.3509351,18.0003512 L12.6451613,18.0003512 L8.00466928,9.99035122 L8.19443418,9.99035122 C10.6519569,9.99035122 12.6451613,8.00450122 12.6451613,5.55470122 L12.6451613,5.55470122 Z" id="Fill-82"></path>
                <polygon id="Fill-84" points="25.6058159 18 30.7096774 5.2857 35.813539 18 37.9354839 18 31.7704278 2.64285 30.7096774 0 29.6489271 2.64285 23.483871 18"></polygon>
            </g>
        </g>
    </g>
</svg>